<mxfile host="Electron" agent="Mozilla/5.0 (Windows NT 10.0; Win64; x64) AppleWebKit/537.36 (KHTML, like Gecko) draw.io/25.0.1 Chrome/128.0.6613.186 Electron/32.2.6 Safari/537.36" version="25.0.1" pages="2">
  <diagram name="Page-1" id="VChzJ-8sCLuD_YnkRzi7">
    <mxGraphModel dx="2990" dy="621" grid="1" gridSize="10" guides="1" tooltips="1" connect="1" arrows="1" fold="1" page="1" pageScale="1" pageWidth="850" pageHeight="1100" math="0" shadow="0">
      <root>
        <mxCell id="0" />
        <mxCell id="1" parent="0" />
        <mxCell id="gHPbyHkSOS8YVctrfDTX-1" value="Container" style="rounded=1;arcSize=10;whiteSpace=wrap;html=1;align=center;" parent="1" vertex="1">
          <mxGeometry x="-320" y="860" width="100" height="40" as="geometry" />
        </mxCell>
        <mxCell id="F-SDp04eJJx72uGeiEW5-105" value="" style="edgeStyle=orthogonalEdgeStyle;rounded=0;orthogonalLoop=1;jettySize=auto;html=1;entryX=0.098;entryY=-0.021;entryDx=0;entryDy=0;entryPerimeter=0;" parent="1" source="gHPbyHkSOS8YVctrfDTX-2" target="gHPbyHkSOS8YVctrfDTX-1" edge="1">
          <mxGeometry relative="1" as="geometry">
            <mxPoint x="245" y="610" as="targetPoint" />
          </mxGeometry>
        </mxCell>
        <mxCell id="gHPbyHkSOS8YVctrfDTX-2" value="ContainerID" style="ellipse;whiteSpace=wrap;html=1;align=center;fontStyle=4;" parent="1" vertex="1">
          <mxGeometry x="-440" y="780" width="100" height="40" as="geometry" />
        </mxCell>
        <mxCell id="K3LRpeD0jAD2TLBuMLeW-23" value="" style="edgeStyle=orthogonalEdgeStyle;rounded=0;orthogonalLoop=1;jettySize=auto;html=1;" parent="1" source="gHPbyHkSOS8YVctrfDTX-5" target="gHPbyHkSOS8YVctrfDTX-1" edge="1">
          <mxGeometry relative="1" as="geometry">
            <Array as="points">
              <mxPoint x="-280" y="1020" />
            </Array>
          </mxGeometry>
        </mxCell>
        <mxCell id="gHPbyHkSOS8YVctrfDTX-5" value="Type" style="ellipse;whiteSpace=wrap;html=1;align=center;" parent="1" vertex="1">
          <mxGeometry x="-240" y="1000" width="100" height="40" as="geometry" />
        </mxCell>
        <mxCell id="gHPbyHkSOS8YVctrfDTX-10" value="" style="edgeStyle=orthogonalEdgeStyle;rounded=0;orthogonalLoop=1;jettySize=auto;html=1;entryX=0.5;entryY=0;entryDx=0;entryDy=0;" parent="1" source="gHPbyHkSOS8YVctrfDTX-6" target="gHPbyHkSOS8YVctrfDTX-1" edge="1">
          <mxGeometry relative="1" as="geometry" />
        </mxCell>
        <mxCell id="gHPbyHkSOS8YVctrfDTX-6" value="Status" style="ellipse;whiteSpace=wrap;html=1;align=center;" parent="1" vertex="1">
          <mxGeometry x="-320" y="765" width="100" height="40" as="geometry" />
        </mxCell>
        <mxCell id="K3LRpeD0jAD2TLBuMLeW-20" value="" style="edgeStyle=orthogonalEdgeStyle;rounded=0;orthogonalLoop=1;jettySize=auto;html=1;" parent="1" source="gHPbyHkSOS8YVctrfDTX-7" target="Vb_I1W2tZeeBy-N_NUL7-7" edge="1">
          <mxGeometry relative="1" as="geometry">
            <Array as="points">
              <mxPoint x="-510" y="920" />
              <mxPoint x="-550" y="920" />
            </Array>
          </mxGeometry>
        </mxCell>
        <mxCell id="gHPbyHkSOS8YVctrfDTX-7" value="Capacity" style="ellipse;whiteSpace=wrap;html=1;align=center;" parent="1" vertex="1">
          <mxGeometry x="-555" y="930" width="100" height="40" as="geometry" />
        </mxCell>
        <mxCell id="K3LRpeD0jAD2TLBuMLeW-22" value="" style="edgeStyle=orthogonalEdgeStyle;rounded=0;orthogonalLoop=1;jettySize=auto;html=1;entryX=0.75;entryY=0;entryDx=0;entryDy=0;" parent="1" source="gHPbyHkSOS8YVctrfDTX-8" target="gHPbyHkSOS8YVctrfDTX-1" edge="1">
          <mxGeometry relative="1" as="geometry">
            <Array as="points">
              <mxPoint x="-200" y="850" />
              <mxPoint x="-245" y="850" />
            </Array>
          </mxGeometry>
        </mxCell>
        <mxCell id="gHPbyHkSOS8YVctrfDTX-8" value="Location" style="ellipse;whiteSpace=wrap;html=1;align=center;" parent="1" vertex="1">
          <mxGeometry x="-250" y="800" width="100" height="40" as="geometry" />
        </mxCell>
        <mxCell id="Vb_I1W2tZeeBy-N_NUL7-1" value="&lt;font style=&quot;font-size: 18px;&quot;&gt;Goods&lt;/font&gt;" style="whiteSpace=wrap;html=1;align=center;" parent="1" vertex="1">
          <mxGeometry x="60" y="1140" width="140" height="100" as="geometry" />
        </mxCell>
        <mxCell id="F-SDp04eJJx72uGeiEW5-128" value="" style="edgeStyle=orthogonalEdgeStyle;rounded=0;orthogonalLoop=1;jettySize=auto;html=1;exitX=1;exitY=0.5;exitDx=0;exitDy=0;" parent="1" target="Vb_I1W2tZeeBy-N_NUL7-1" edge="1">
          <mxGeometry relative="1" as="geometry">
            <mxPoint x="-50" y="1265" as="sourcePoint" />
            <mxPoint x="60" y="1235" as="targetPoint" />
            <Array as="points">
              <mxPoint x="40" y="1265" />
              <mxPoint x="40" y="1230" />
            </Array>
          </mxGeometry>
        </mxCell>
        <mxCell id="Vb_I1W2tZeeBy-N_NUL7-2" value="Weight" style="ellipse;whiteSpace=wrap;html=1;align=center;" parent="1" vertex="1">
          <mxGeometry x="-150" y="1250" width="100" height="40" as="geometry" />
        </mxCell>
        <mxCell id="F-SDp04eJJx72uGeiEW5-110" value="" style="edgeStyle=orthogonalEdgeStyle;rounded=0;orthogonalLoop=1;jettySize=auto;html=1;" parent="1" source="Vb_I1W2tZeeBy-N_NUL7-3" target="Vb_I1W2tZeeBy-N_NUL7-1" edge="1">
          <mxGeometry relative="1" as="geometry">
            <Array as="points">
              <mxPoint x="-2" y="1120" />
              <mxPoint x="-2" y="1150" />
            </Array>
          </mxGeometry>
        </mxCell>
        <mxCell id="Vb_I1W2tZeeBy-N_NUL7-3" value="GoodsID" style="ellipse;whiteSpace=wrap;html=1;align=center;fontStyle=4;" parent="1" vertex="1">
          <mxGeometry x="-150" y="1100" width="100" height="40" as="geometry" />
        </mxCell>
        <mxCell id="K3LRpeD0jAD2TLBuMLeW-24" value="" style="edgeStyle=orthogonalEdgeStyle;rounded=0;orthogonalLoop=1;jettySize=auto;html=1;" parent="1" source="Vb_I1W2tZeeBy-N_NUL7-5" target="Vb_I1W2tZeeBy-N_NUL7-1" edge="1">
          <mxGeometry relative="1" as="geometry">
            <Array as="points">
              <mxPoint x="30" y="1170" />
              <mxPoint x="30" y="1170" />
            </Array>
          </mxGeometry>
        </mxCell>
        <mxCell id="Vb_I1W2tZeeBy-N_NUL7-5" value="Name" style="ellipse;whiteSpace=wrap;html=1;align=center;" parent="1" vertex="1">
          <mxGeometry x="-150" y="1150" width="100" height="40" as="geometry" />
        </mxCell>
        <mxCell id="K3LRpeD0jAD2TLBuMLeW-25" value="" style="edgeStyle=orthogonalEdgeStyle;rounded=0;orthogonalLoop=1;jettySize=auto;html=1;" parent="1" source="Vb_I1W2tZeeBy-N_NUL7-6" target="Vb_I1W2tZeeBy-N_NUL7-1" edge="1">
          <mxGeometry relative="1" as="geometry">
            <Array as="points">
              <mxPoint x="-40" y="1210" />
              <mxPoint x="-40" y="1210" />
            </Array>
          </mxGeometry>
        </mxCell>
        <mxCell id="Vb_I1W2tZeeBy-N_NUL7-6" value="Category" style="ellipse;whiteSpace=wrap;html=1;align=center;" parent="1" vertex="1">
          <mxGeometry x="-150" y="1200" width="100" height="40" as="geometry" />
        </mxCell>
        <mxCell id="Vb_I1W2tZeeBy-N_NUL7-7" value="Ship" style="whiteSpace=wrap;html=1;align=center;" parent="1" vertex="1">
          <mxGeometry x="-620" y="830" width="100" height="70" as="geometry" />
        </mxCell>
        <mxCell id="F-SDp04eJJx72uGeiEW5-18" value="" style="edgeStyle=orthogonalEdgeStyle;rounded=0;orthogonalLoop=1;jettySize=auto;html=1;entryX=0;entryY=0.25;entryDx=0;entryDy=0;" parent="1" source="Vb_I1W2tZeeBy-N_NUL7-8" target="Vb_I1W2tZeeBy-N_NUL7-7" edge="1">
          <mxGeometry relative="1" as="geometry" />
        </mxCell>
        <mxCell id="Vb_I1W2tZeeBy-N_NUL7-8" value="Name" style="ellipse;whiteSpace=wrap;html=1;align=center;" parent="1" vertex="1">
          <mxGeometry x="-770" y="780" width="100" height="40" as="geometry" />
        </mxCell>
        <mxCell id="F-SDp04eJJx72uGeiEW5-20" value="" style="edgeStyle=orthogonalEdgeStyle;rounded=0;orthogonalLoop=1;jettySize=auto;html=1;entryX=0;entryY=0.75;entryDx=0;entryDy=0;" parent="1" source="Vb_I1W2tZeeBy-N_NUL7-9" target="Vb_I1W2tZeeBy-N_NUL7-7" edge="1">
          <mxGeometry relative="1" as="geometry" />
        </mxCell>
        <mxCell id="Vb_I1W2tZeeBy-N_NUL7-9" value="ShipID" style="ellipse;whiteSpace=wrap;html=1;align=center;fontStyle=4;" parent="1" vertex="1">
          <mxGeometry x="-820" y="825" width="100" height="40" as="geometry" />
        </mxCell>
        <mxCell id="44PwhdpTDtPmbjI4qkvA-17" value="" style="edgeStyle=orthogonalEdgeStyle;rounded=0;orthogonalLoop=1;jettySize=auto;html=1;" parent="1" source="Vb_I1W2tZeeBy-N_NUL7-10" target="44PwhdpTDtPmbjI4qkvA-12" edge="1">
          <mxGeometry relative="1" as="geometry">
            <Array as="points">
              <mxPoint x="-720" y="910" />
              <mxPoint x="-715" y="910" />
            </Array>
          </mxGeometry>
        </mxCell>
        <mxCell id="Vb_I1W2tZeeBy-N_NUL7-10" value="DepartureDate" style="ellipse;whiteSpace=wrap;html=1;align=center;" parent="1" vertex="1">
          <mxGeometry x="-860" y="880" width="100" height="40" as="geometry" />
        </mxCell>
        <mxCell id="44PwhdpTDtPmbjI4qkvA-19" value="" style="edgeStyle=orthogonalEdgeStyle;rounded=0;orthogonalLoop=1;jettySize=auto;html=1;" parent="1" source="Vb_I1W2tZeeBy-N_NUL7-12" target="44PwhdpTDtPmbjI4qkvA-12" edge="1">
          <mxGeometry relative="1" as="geometry">
            <Array as="points">
              <mxPoint x="-620" y="1050" />
            </Array>
          </mxGeometry>
        </mxCell>
        <mxCell id="Vb_I1W2tZeeBy-N_NUL7-12" value="ArrivalDate" style="ellipse;whiteSpace=wrap;html=1;align=center;" parent="1" vertex="1">
          <mxGeometry x="-670" y="1070" width="100" height="40" as="geometry" />
        </mxCell>
        <mxCell id="K3LRpeD0jAD2TLBuMLeW-85" style="edgeStyle=orthogonalEdgeStyle;rounded=0;orthogonalLoop=1;jettySize=auto;html=1;entryX=0;entryY=0.75;entryDx=0;entryDy=0;" parent="1" source="Vb_I1W2tZeeBy-N_NUL7-13" target="Dtm-8tswHEWn4qXUObzb-8" edge="1">
          <mxGeometry relative="1" as="geometry">
            <Array as="points">
              <mxPoint x="-790" y="1460" />
              <mxPoint x="-690" y="1460" />
              <mxPoint x="-690" y="1295" />
            </Array>
          </mxGeometry>
        </mxCell>
        <mxCell id="Vb_I1W2tZeeBy-N_NUL7-13" value="Employee" style="whiteSpace=wrap;html=1;align=center;" parent="1" vertex="1">
          <mxGeometry x="-880" y="1483" width="100" height="50" as="geometry" />
        </mxCell>
        <mxCell id="F-SDp04eJJx72uGeiEW5-4" value="" style="edgeStyle=orthogonalEdgeStyle;rounded=0;orthogonalLoop=1;jettySize=auto;html=1;" parent="1" source="Vb_I1W2tZeeBy-N_NUL7-14" target="Vb_I1W2tZeeBy-N_NUL7-13" edge="1">
          <mxGeometry relative="1" as="geometry">
            <Array as="points">
              <mxPoint x="-870" y="1415" />
            </Array>
          </mxGeometry>
        </mxCell>
        <mxCell id="Vb_I1W2tZeeBy-N_NUL7-14" value="PhoneNumber" style="ellipse;whiteSpace=wrap;html=1;align=center;" parent="1" vertex="1">
          <mxGeometry x="-1060" y="1395.28" width="100" height="40" as="geometry" />
        </mxCell>
        <mxCell id="UAoSDZrwDx9XE6M_A888-29" value="" style="edgeStyle=orthogonalEdgeStyle;rounded=0;orthogonalLoop=1;jettySize=auto;html=1;entryX=0;entryY=0.75;entryDx=0;entryDy=0;" parent="1" source="Vb_I1W2tZeeBy-N_NUL7-15" target="Vb_I1W2tZeeBy-N_NUL7-13" edge="1">
          <mxGeometry relative="1" as="geometry">
            <Array as="points">
              <mxPoint x="-940" y="1625" />
              <mxPoint x="-940" y="1521" />
            </Array>
          </mxGeometry>
        </mxCell>
        <mxCell id="Vb_I1W2tZeeBy-N_NUL7-15" value="EmployeeID" style="ellipse;whiteSpace=wrap;html=1;align=center;fontStyle=4;" parent="1" vertex="1">
          <mxGeometry x="-1070" y="1605.28" width="100" height="40" as="geometry" />
        </mxCell>
        <mxCell id="F-SDp04eJJx72uGeiEW5-84" value="" style="edgeStyle=orthogonalEdgeStyle;rounded=0;orthogonalLoop=1;jettySize=auto;html=1;" parent="1" source="Vb_I1W2tZeeBy-N_NUL7-16" target="Vb_I1W2tZeeBy-N_NUL7-13" edge="1">
          <mxGeometry relative="1" as="geometry">
            <mxPoint x="-790" y="1540" as="targetPoint" />
            <Array as="points">
              <mxPoint x="-790" y="1640" />
            </Array>
          </mxGeometry>
        </mxCell>
        <mxCell id="Vb_I1W2tZeeBy-N_NUL7-16" value="Name" style="ellipse;whiteSpace=wrap;html=1;align=center;" parent="1" vertex="1">
          <mxGeometry x="-780" y="1645.28" width="100" height="40" as="geometry" />
        </mxCell>
        <mxCell id="F-SDp04eJJx72uGeiEW5-86" value="" style="edgeStyle=orthogonalEdgeStyle;rounded=0;orthogonalLoop=1;jettySize=auto;html=1;" parent="1" source="Vb_I1W2tZeeBy-N_NUL7-17" target="Vb_I1W2tZeeBy-N_NUL7-13" edge="1">
          <mxGeometry relative="1" as="geometry">
            <Array as="points">
              <mxPoint x="-830" y="1670" />
              <mxPoint x="-830" y="1670" />
            </Array>
          </mxGeometry>
        </mxCell>
        <mxCell id="Vb_I1W2tZeeBy-N_NUL7-17" value="Role" style="ellipse;whiteSpace=wrap;html=1;align=center;" parent="1" vertex="1">
          <mxGeometry x="-885" y="1700" width="100" height="40" as="geometry" />
        </mxCell>
        <mxCell id="Vb_I1W2tZeeBy-N_NUL7-18" value="Customer" style="whiteSpace=wrap;html=1;align=center;" parent="1" vertex="1">
          <mxGeometry x="260" y="1540.28" width="100" height="40" as="geometry" />
        </mxCell>
        <mxCell id="K3LRpeD0jAD2TLBuMLeW-52" style="edgeStyle=orthogonalEdgeStyle;rounded=0;orthogonalLoop=1;jettySize=auto;html=1;" parent="1" source="Vb_I1W2tZeeBy-N_NUL7-19" edge="1">
          <mxGeometry relative="1" as="geometry">
            <mxPoint x="330" y="1540" as="targetPoint" />
          </mxGeometry>
        </mxCell>
        <mxCell id="Vb_I1W2tZeeBy-N_NUL7-19" value="CustomerID" style="ellipse;whiteSpace=wrap;html=1;align=center;fontStyle=4;" parent="1" vertex="1">
          <mxGeometry x="400" y="1440" width="100" height="42" as="geometry" />
        </mxCell>
        <mxCell id="K3LRpeD0jAD2TLBuMLeW-42" value="" style="edgeStyle=orthogonalEdgeStyle;rounded=0;orthogonalLoop=1;jettySize=auto;html=1;" parent="1" source="Vb_I1W2tZeeBy-N_NUL7-20" target="Vb_I1W2tZeeBy-N_NUL7-18" edge="1">
          <mxGeometry relative="1" as="geometry" />
        </mxCell>
        <mxCell id="Vb_I1W2tZeeBy-N_NUL7-20" value="FirstName" style="ellipse;whiteSpace=wrap;html=1;align=center;" parent="1" vertex="1">
          <mxGeometry x="390" y="1540.28" width="100" height="40" as="geometry" />
        </mxCell>
        <mxCell id="K3LRpeD0jAD2TLBuMLeW-44" value="" style="edgeStyle=orthogonalEdgeStyle;rounded=0;orthogonalLoop=1;jettySize=auto;html=1;" parent="1" source="Vb_I1W2tZeeBy-N_NUL7-21" target="Vb_I1W2tZeeBy-N_NUL7-18" edge="1">
          <mxGeometry relative="1" as="geometry">
            <Array as="points">
              <mxPoint x="340" y="1600" />
              <mxPoint x="340" y="1600" />
            </Array>
          </mxGeometry>
        </mxCell>
        <mxCell id="Vb_I1W2tZeeBy-N_NUL7-21" value="PhoneNumber" style="ellipse;whiteSpace=wrap;html=1;align=center;" parent="1" vertex="1">
          <mxGeometry x="310" y="1620" width="100" height="40" as="geometry" />
        </mxCell>
        <mxCell id="Vb_I1W2tZeeBy-N_NUL7-22" value="Address" style="ellipse;whiteSpace=wrap;html=1;align=center;" parent="1" vertex="1">
          <mxGeometry x="390" y="1490.28" width="100" height="40" as="geometry" />
        </mxCell>
        <mxCell id="K3LRpeD0jAD2TLBuMLeW-56" style="edgeStyle=orthogonalEdgeStyle;rounded=0;orthogonalLoop=1;jettySize=auto;html=1;entryX=0;entryY=0.75;entryDx=0;entryDy=0;" parent="1" source="Vb_I1W2tZeeBy-N_NUL7-23" target="Vb_I1W2tZeeBy-N_NUL7-18" edge="1">
          <mxGeometry relative="1" as="geometry" />
        </mxCell>
        <mxCell id="Vb_I1W2tZeeBy-N_NUL7-23" value="Invoice" style="whiteSpace=wrap;html=1;align=center;" parent="1" vertex="1">
          <mxGeometry x="-80" y="1515.28" width="100" height="40" as="geometry" />
        </mxCell>
        <mxCell id="F-SDp04eJJx72uGeiEW5-8" value="" style="edgeStyle=orthogonalEdgeStyle;rounded=0;orthogonalLoop=1;jettySize=auto;html=1;entryX=0.144;entryY=0.957;entryDx=0;entryDy=0;entryPerimeter=0;" parent="1" source="Vb_I1W2tZeeBy-N_NUL7-24" target="Vb_I1W2tZeeBy-N_NUL7-23" edge="1">
          <mxGeometry relative="1" as="geometry" />
        </mxCell>
        <mxCell id="Vb_I1W2tZeeBy-N_NUL7-24" value="Date" style="ellipse;whiteSpace=wrap;html=1;align=center;" parent="1" vertex="1">
          <mxGeometry x="-165" y="1620" width="100" height="40" as="geometry" />
        </mxCell>
        <mxCell id="F-SDp04eJJx72uGeiEW5-7" value="" style="edgeStyle=orthogonalEdgeStyle;rounded=0;orthogonalLoop=1;jettySize=auto;html=1;" parent="1" source="Vb_I1W2tZeeBy-N_NUL7-25" target="Vb_I1W2tZeeBy-N_NUL7-23" edge="1">
          <mxGeometry relative="1" as="geometry" />
        </mxCell>
        <mxCell id="Vb_I1W2tZeeBy-N_NUL7-25" value="Amount" style="ellipse;whiteSpace=wrap;html=1;align=center;" parent="1" vertex="1">
          <mxGeometry x="-220" y="1515.28" width="100" height="40" as="geometry" />
        </mxCell>
        <mxCell id="F-SDp04eJJx72uGeiEW5-6" value="" style="edgeStyle=orthogonalEdgeStyle;rounded=0;orthogonalLoop=1;jettySize=auto;html=1;entryX=0.879;entryY=1.032;entryDx=0;entryDy=0;entryPerimeter=0;" parent="1" source="Vb_I1W2tZeeBy-N_NUL7-26" target="Vb_I1W2tZeeBy-N_NUL7-23" edge="1">
          <mxGeometry relative="1" as="geometry" />
        </mxCell>
        <mxCell id="Vb_I1W2tZeeBy-N_NUL7-26" value="CustomerID" style="ellipse;whiteSpace=wrap;html=1;align=center;fontStyle=4;" parent="1" vertex="1">
          <mxGeometry x="40" y="1620.28" width="100" height="40" as="geometry" />
        </mxCell>
        <mxCell id="F-SDp04eJJx72uGeiEW5-41" value="Task" style="whiteSpace=wrap;html=1;align=center;" parent="1" vertex="1">
          <mxGeometry x="-1220" y="1475.28" width="100" height="40" as="geometry" />
        </mxCell>
        <mxCell id="F-SDp04eJJx72uGeiEW5-49" value="" style="edgeStyle=orthogonalEdgeStyle;rounded=0;orthogonalLoop=1;jettySize=auto;html=1;" parent="1" source="F-SDp04eJJx72uGeiEW5-42" target="F-SDp04eJJx72uGeiEW5-41" edge="1">
          <mxGeometry relative="1" as="geometry" />
        </mxCell>
        <mxCell id="F-SDp04eJJx72uGeiEW5-42" value="TaskID" style="ellipse;whiteSpace=wrap;html=1;align=center;fontStyle=4;" parent="1" vertex="1">
          <mxGeometry x="-1325" y="1400" width="100" height="40" as="geometry" />
        </mxCell>
        <mxCell id="F-SDp04eJJx72uGeiEW5-54" value="" style="edgeStyle=orthogonalEdgeStyle;rounded=0;orthogonalLoop=1;jettySize=auto;html=1;entryX=0.188;entryY=1.068;entryDx=0;entryDy=0;entryPerimeter=0;" parent="1" source="F-SDp04eJJx72uGeiEW5-43" target="F-SDp04eJJx72uGeiEW5-41" edge="1">
          <mxGeometry relative="1" as="geometry">
            <Array as="points">
              <mxPoint x="-1201" y="1600" />
            </Array>
          </mxGeometry>
        </mxCell>
        <mxCell id="F-SDp04eJJx72uGeiEW5-43" value="Status" style="ellipse;whiteSpace=wrap;html=1;align=center;" parent="1" vertex="1">
          <mxGeometry x="-1420" y="1580.28" width="100" height="40" as="geometry" />
        </mxCell>
        <mxCell id="F-SDp04eJJx72uGeiEW5-52" value="" style="edgeStyle=orthogonalEdgeStyle;rounded=0;orthogonalLoop=1;jettySize=auto;html=1;" parent="1" source="F-SDp04eJJx72uGeiEW5-44" target="F-SDp04eJJx72uGeiEW5-41" edge="1">
          <mxGeometry relative="1" as="geometry">
            <Array as="points">
              <mxPoint x="-1240" y="1530" />
              <mxPoint x="-1240" y="1515" />
            </Array>
          </mxGeometry>
        </mxCell>
        <mxCell id="F-SDp04eJJx72uGeiEW5-44" value="StartDate" style="ellipse;whiteSpace=wrap;html=1;align=center;" parent="1" vertex="1">
          <mxGeometry x="-1410" y="1520.28" width="100" height="40" as="geometry" />
        </mxCell>
        <mxCell id="F-SDp04eJJx72uGeiEW5-53" value="" style="edgeStyle=orthogonalEdgeStyle;rounded=0;orthogonalLoop=1;jettySize=auto;html=1;" parent="1" source="F-SDp04eJJx72uGeiEW5-45" target="F-SDp04eJJx72uGeiEW5-41" edge="1">
          <mxGeometry relative="1" as="geometry">
            <mxPoint x="-1180" y="1694" as="sourcePoint" />
            <mxPoint x="-1150" y="1515.2799999999997" as="targetPoint" />
            <Array as="points">
              <mxPoint x="-1170" y="1590" />
              <mxPoint x="-1170" y="1590" />
            </Array>
          </mxGeometry>
        </mxCell>
        <mxCell id="F-SDp04eJJx72uGeiEW5-45" value="EndDate" style="ellipse;whiteSpace=wrap;html=1;align=center;" parent="1" vertex="1">
          <mxGeometry x="-1230" y="1620.28" width="100" height="40" as="geometry" />
        </mxCell>
        <mxCell id="F-SDp04eJJx72uGeiEW5-51" value="" style="edgeStyle=orthogonalEdgeStyle;rounded=0;orthogonalLoop=1;jettySize=auto;html=1;" parent="1" target="F-SDp04eJJx72uGeiEW5-41" edge="1">
          <mxGeometry relative="1" as="geometry">
            <mxPoint x="-1320.0044474306474" y="1497.67" as="sourcePoint" />
            <mxPoint x="-1220.52" y="1493.0033333333336" as="targetPoint" />
            <Array as="points">
              <mxPoint x="-1320" y="1493" />
            </Array>
          </mxGeometry>
        </mxCell>
        <mxCell id="F-SDp04eJJx72uGeiEW5-46" value="Description" style="ellipse;whiteSpace=wrap;html=1;align=center;" parent="1" vertex="1">
          <mxGeometry x="-1410" y="1468.28" width="100" height="40" as="geometry" />
        </mxCell>
        <mxCell id="F-SDp04eJJx72uGeiEW5-50" value="" style="edgeStyle=orthogonalEdgeStyle;rounded=0;orthogonalLoop=1;jettySize=auto;html=1;" parent="1" target="F-SDp04eJJx72uGeiEW5-41" edge="1">
          <mxGeometry relative="1" as="geometry">
            <mxPoint x="-1150" y="1413.0003027798234" as="sourcePoint" />
            <mxPoint x="-1130" y="1476.9499999999998" as="targetPoint" />
            <Array as="points">
              <mxPoint x="-1150" y="1460" />
              <mxPoint x="-1150" y="1460" />
            </Array>
          </mxGeometry>
        </mxCell>
        <mxCell id="F-SDp04eJJx72uGeiEW5-47" value="TaskName" style="ellipse;whiteSpace=wrap;html=1;align=center;" parent="1" vertex="1">
          <mxGeometry x="-1220" y="1373" width="100" height="40" as="geometry" />
        </mxCell>
        <mxCell id="F-SDp04eJJx72uGeiEW5-56" value="" style="edgeStyle=orthogonalEdgeStyle;rounded=0;orthogonalLoop=1;jettySize=auto;html=1;" parent="1" source="F-SDp04eJJx72uGeiEW5-55" edge="1">
          <mxGeometry relative="1" as="geometry">
            <mxPoint x="-940" y="1721.4199999999998" as="sourcePoint" />
            <mxPoint x="-860" y="1529.14" as="targetPoint" />
            <Array as="points">
              <mxPoint x="-860" y="1628" />
              <mxPoint x="-859" y="1628" />
              <mxPoint x="-859" y="1529" />
            </Array>
          </mxGeometry>
        </mxCell>
        <mxCell id="F-SDp04eJJx72uGeiEW5-55" value="Email" style="ellipse;whiteSpace=wrap;html=1;align=center;" parent="1" vertex="1">
          <mxGeometry x="-960" y="1660" width="100" height="40" as="geometry" />
        </mxCell>
        <mxCell id="sz6iUVAKp5ZYMQDWun00-3" style="edgeStyle=orthogonalEdgeStyle;rounded=0;orthogonalLoop=1;jettySize=auto;html=1;entryX=0;entryY=0.5;entryDx=0;entryDy=0;" parent="1" source="F-SDp04eJJx72uGeiEW5-59" target="Dtm-8tswHEWn4qXUObzb-8" edge="1">
          <mxGeometry relative="1" as="geometry">
            <Array as="points">
              <mxPoint x="-687" y="1180" />
              <mxPoint x="-687" y="1285" />
            </Array>
          </mxGeometry>
        </mxCell>
        <mxCell id="F-SDp04eJJx72uGeiEW5-59" value="Dock" style="whiteSpace=wrap;html=1;align=center;" parent="1" vertex="1">
          <mxGeometry x="-870" y="1150" width="100" height="40" as="geometry" />
        </mxCell>
        <mxCell id="F-SDp04eJJx72uGeiEW5-65" value="" style="edgeStyle=orthogonalEdgeStyle;rounded=0;orthogonalLoop=1;jettySize=auto;html=1;" parent="1" source="F-SDp04eJJx72uGeiEW5-60" target="F-SDp04eJJx72uGeiEW5-59" edge="1">
          <mxGeometry relative="1" as="geometry">
            <Array as="points">
              <mxPoint x="-860" y="1220" />
            </Array>
          </mxGeometry>
        </mxCell>
        <mxCell id="F-SDp04eJJx72uGeiEW5-60" value="DockID" style="ellipse;whiteSpace=wrap;html=1;align=center;fontStyle=4;" parent="1" vertex="1">
          <mxGeometry x="-1040" y="1200" width="100" height="40" as="geometry" />
        </mxCell>
        <mxCell id="F-SDp04eJJx72uGeiEW5-66" value="" style="edgeStyle=orthogonalEdgeStyle;rounded=0;orthogonalLoop=1;jettySize=auto;html=1;" parent="1" source="F-SDp04eJJx72uGeiEW5-61" edge="1">
          <mxGeometry relative="1" as="geometry">
            <mxPoint x="-995" y="970" as="sourcePoint" />
            <mxPoint x="-805" y="1150" as="targetPoint" />
            <Array as="points">
              <mxPoint x="-805" y="990" />
            </Array>
          </mxGeometry>
        </mxCell>
        <mxCell id="F-SDp04eJJx72uGeiEW5-61" value="Location" style="ellipse;whiteSpace=wrap;html=1;align=center;" parent="1" vertex="1">
          <mxGeometry x="-1040" y="970" width="100" height="40" as="geometry" />
        </mxCell>
        <mxCell id="F-SDp04eJJx72uGeiEW5-68" value="" style="edgeStyle=orthogonalEdgeStyle;rounded=0;orthogonalLoop=1;jettySize=auto;html=1;" parent="1" source="F-SDp04eJJx72uGeiEW5-62" target="F-SDp04eJJx72uGeiEW5-59" edge="1">
          <mxGeometry relative="1" as="geometry" />
        </mxCell>
        <mxCell id="F-SDp04eJJx72uGeiEW5-62" value="Status" style="ellipse;whiteSpace=wrap;html=1;align=center;" parent="1" vertex="1">
          <mxGeometry x="-1040" y="1140" width="100" height="40" as="geometry" />
        </mxCell>
        <mxCell id="F-SDp04eJJx72uGeiEW5-67" value="" style="edgeStyle=orthogonalEdgeStyle;rounded=0;orthogonalLoop=1;jettySize=auto;html=1;" parent="1" source="F-SDp04eJJx72uGeiEW5-63" target="F-SDp04eJJx72uGeiEW5-59" edge="1">
          <mxGeometry relative="1" as="geometry">
            <mxPoint x="-680" y="890" as="sourcePoint" />
            <Array as="points">
              <mxPoint x="-850" y="1270" />
            </Array>
          </mxGeometry>
        </mxCell>
        <mxCell id="F-SDp04eJJx72uGeiEW5-63" value="Capa&lt;span style=&quot;background-color: initial;&quot;&gt;city&lt;/span&gt;" style="ellipse;whiteSpace=wrap;html=1;align=center;" parent="1" vertex="1">
          <mxGeometry x="-1040" y="1260" width="100" height="40" as="geometry" />
        </mxCell>
        <mxCell id="F-SDp04eJJx72uGeiEW5-70" value="Warehouse" style="whiteSpace=wrap;html=1;align=center;" parent="1" vertex="1">
          <mxGeometry x="-485" y="1468.28" width="120" height="60" as="geometry" />
        </mxCell>
        <mxCell id="F-SDp04eJJx72uGeiEW5-79" value="" style="edgeStyle=orthogonalEdgeStyle;rounded=0;orthogonalLoop=1;jettySize=auto;html=1;entryX=0.25;entryY=1;entryDx=0;entryDy=0;" parent="1" target="F-SDp04eJJx72uGeiEW5-70" edge="1">
          <mxGeometry relative="1" as="geometry">
            <mxPoint x="-560" y="1618.78" as="sourcePoint" />
            <mxPoint x="-450" y="1510" as="targetPoint" />
          </mxGeometry>
        </mxCell>
        <mxCell id="F-SDp04eJJx72uGeiEW5-71" value="WarehouseID" style="ellipse;whiteSpace=wrap;html=1;align=center;fontStyle=4;" parent="1" vertex="1">
          <mxGeometry x="-640" y="1590" width="100" height="40" as="geometry" />
        </mxCell>
        <mxCell id="K3LRpeD0jAD2TLBuMLeW-14" value="" style="edgeStyle=orthogonalEdgeStyle;rounded=0;orthogonalLoop=1;jettySize=auto;html=1;" parent="1" source="F-SDp04eJJx72uGeiEW5-72" target="F-SDp04eJJx72uGeiEW5-70" edge="1">
          <mxGeometry relative="1" as="geometry">
            <Array as="points">
              <mxPoint x="-380" y="1570" />
            </Array>
          </mxGeometry>
        </mxCell>
        <mxCell id="F-SDp04eJJx72uGeiEW5-72" value="Location" style="ellipse;whiteSpace=wrap;html=1;align=center;" parent="1" vertex="1">
          <mxGeometry x="-390" y="1560.28" width="100" height="40" as="geometry" />
        </mxCell>
        <mxCell id="F-SDp04eJJx72uGeiEW5-82" value="" style="edgeStyle=orthogonalEdgeStyle;rounded=0;orthogonalLoop=1;jettySize=auto;html=1;entryX=0.076;entryY=1.003;entryDx=0;entryDy=0;entryPerimeter=0;" parent="1" source="F-SDp04eJJx72uGeiEW5-73" target="F-SDp04eJJx72uGeiEW5-70" edge="1">
          <mxGeometry relative="1" as="geometry" />
        </mxCell>
        <mxCell id="F-SDp04eJJx72uGeiEW5-73" value="Status" style="ellipse;whiteSpace=wrap;html=1;align=center;" parent="1" vertex="1">
          <mxGeometry x="-640" y="1540.28" width="100" height="40" as="geometry" />
        </mxCell>
        <mxCell id="F-SDp04eJJx72uGeiEW5-81" value="" style="edgeStyle=orthogonalEdgeStyle;rounded=0;orthogonalLoop=1;jettySize=auto;html=1;entryX=0.361;entryY=1.017;entryDx=0;entryDy=0;entryPerimeter=0;" parent="1" target="F-SDp04eJJx72uGeiEW5-70" edge="1">
          <mxGeometry relative="1" as="geometry">
            <mxPoint x="-598.42" y="1669.52" as="sourcePoint" />
            <mxPoint x="-430" y="1520" as="targetPoint" />
          </mxGeometry>
        </mxCell>
        <mxCell id="K3LRpeD0jAD2TLBuMLeW-27" value="" style="edgeStyle=orthogonalEdgeStyle;rounded=0;orthogonalLoop=1;jettySize=auto;html=1;" parent="1" source="Dtm-8tswHEWn4qXUObzb-5" target="Vb_I1W2tZeeBy-N_NUL7-1" edge="1">
          <mxGeometry relative="1" as="geometry">
            <Array as="points">
              <mxPoint x="170" y="1120" />
            </Array>
          </mxGeometry>
        </mxCell>
        <mxCell id="Dtm-8tswHEWn4qXUObzb-5" value="Quantity" style="ellipse;whiteSpace=wrap;html=1;align=center;" parent="1" vertex="1">
          <mxGeometry x="185" y="1050" width="100" height="40" as="geometry" />
        </mxCell>
        <mxCell id="Dtm-8tswHEWn4qXUObzb-8" value="Port" style="whiteSpace=wrap;html=1;align=center;" parent="1" vertex="1">
          <mxGeometry x="-605" y="1265" width="100" height="40" as="geometry" />
        </mxCell>
        <mxCell id="Dtm-8tswHEWn4qXUObzb-13" value="" style="edgeStyle=orthogonalEdgeStyle;rounded=0;orthogonalLoop=1;jettySize=auto;html=1;entryX=0.175;entryY=1.004;entryDx=0;entryDy=0;entryPerimeter=0;" parent="1" source="Dtm-8tswHEWn4qXUObzb-9" target="Dtm-8tswHEWn4qXUObzb-8" edge="1">
          <mxGeometry relative="1" as="geometry">
            <Array as="points">
              <mxPoint x="-587" y="1315" />
            </Array>
          </mxGeometry>
        </mxCell>
        <mxCell id="Dtm-8tswHEWn4qXUObzb-9" value="Name" style="ellipse;whiteSpace=wrap;html=1;align=center;" parent="1" vertex="1">
          <mxGeometry x="-655" y="1360" width="100" height="40" as="geometry" />
        </mxCell>
        <mxCell id="Dtm-8tswHEWn4qXUObzb-14" value="" style="edgeStyle=orthogonalEdgeStyle;rounded=0;orthogonalLoop=1;jettySize=auto;html=1;" parent="1" source="Dtm-8tswHEWn4qXUObzb-10" target="Dtm-8tswHEWn4qXUObzb-8" edge="1">
          <mxGeometry relative="1" as="geometry">
            <Array as="points">
              <mxPoint x="-470" y="1280" />
              <mxPoint x="-470" y="1280" />
            </Array>
          </mxGeometry>
        </mxCell>
        <mxCell id="Dtm-8tswHEWn4qXUObzb-10" value="PortID" style="ellipse;whiteSpace=wrap;html=1;align=center;fontStyle=4;" parent="1" vertex="1">
          <mxGeometry x="-475" y="1260" width="100" height="40" as="geometry" />
        </mxCell>
        <mxCell id="Dtm-8tswHEWn4qXUObzb-18" value="" style="edgeStyle=orthogonalEdgeStyle;rounded=0;orthogonalLoop=1;jettySize=auto;html=1;" parent="1" source="Dtm-8tswHEWn4qXUObzb-15" target="Dtm-8tswHEWn4qXUObzb-8" edge="1">
          <mxGeometry relative="1" as="geometry">
            <Array as="points">
              <mxPoint x="-535" y="1320" />
              <mxPoint x="-535" y="1320" />
            </Array>
          </mxGeometry>
        </mxCell>
        <mxCell id="Dtm-8tswHEWn4qXUObzb-15" value="Location" style="ellipse;whiteSpace=wrap;html=1;align=center;" parent="1" vertex="1">
          <mxGeometry x="-555" y="1360" width="100" height="40" as="geometry" />
        </mxCell>
        <mxCell id="Dtm-8tswHEWn4qXUObzb-20" value="" style="edgeStyle=orthogonalEdgeStyle;rounded=0;orthogonalLoop=1;jettySize=auto;html=1;entryX=0.125;entryY=0.058;entryDx=0;entryDy=0;exitX=0.5;exitY=1;exitDx=0;exitDy=0;entryPerimeter=0;" parent="1" source="jWYzbLdqj7CJddAkFR9f-35" target="Dtm-8tswHEWn4qXUObzb-8" edge="1">
          <mxGeometry relative="1" as="geometry">
            <mxPoint x="-290" y="1110" as="sourcePoint" />
            <Array as="points">
              <mxPoint x="-592" y="1230" />
              <mxPoint x="-592" y="1245" />
            </Array>
          </mxGeometry>
        </mxCell>
        <mxCell id="Dtm-8tswHEWn4qXUObzb-19" value="" style="edgeStyle=orthogonalEdgeStyle;rounded=0;orthogonalLoop=1;jettySize=auto;html=1;" parent="1" source="Dtm-8tswHEWn4qXUObzb-17" target="Dtm-8tswHEWn4qXUObzb-8" edge="1">
          <mxGeometry relative="1" as="geometry">
            <Array as="points">
              <mxPoint x="-560" y="1250" />
              <mxPoint x="-560" y="1250" />
            </Array>
          </mxGeometry>
        </mxCell>
        <mxCell id="Dtm-8tswHEWn4qXUObzb-17" value="Capacity" style="ellipse;whiteSpace=wrap;html=1;align=center;" parent="1" vertex="1">
          <mxGeometry x="-530" y="1200" width="100" height="40" as="geometry" />
        </mxCell>
        <mxCell id="jWYzbLdqj7CJddAkFR9f-2" value="&lt;font style=&quot;font-size: 18px;&quot;&gt;(1, N)&lt;/font&gt;" style="text;html=1;align=center;verticalAlign=middle;resizable=0;points=[];autosize=1;strokeColor=none;fillColor=none;" parent="1" vertex="1">
          <mxGeometry x="-1120" y="1460" width="70" height="40" as="geometry" />
        </mxCell>
        <mxCell id="jWYzbLdqj7CJddAkFR9f-4" value="&lt;font style=&quot;font-size: 18px;&quot;&gt;(1, 1)&lt;/font&gt;" style="text;html=1;align=center;verticalAlign=middle;resizable=0;points=[];autosize=1;strokeColor=none;fillColor=none;" parent="1" vertex="1">
          <mxGeometry x="-940" y="1460" width="70" height="40" as="geometry" />
        </mxCell>
        <mxCell id="jWYzbLdqj7CJddAkFR9f-8" value="&lt;font style=&quot;font-size: 18px;&quot;&gt;(1, N)&lt;/font&gt;" style="text;html=1;align=center;verticalAlign=middle;resizable=0;points=[];autosize=1;strokeColor=none;fillColor=none;" parent="1" vertex="1">
          <mxGeometry x="-525" y="845" width="70" height="40" as="geometry" />
        </mxCell>
        <mxCell id="jWYzbLdqj7CJddAkFR9f-9" value="&lt;font style=&quot;font-size: 18px;&quot;&gt;(1, 1)&lt;/font&gt;" style="text;html=1;align=center;verticalAlign=middle;resizable=0;points=[];autosize=1;strokeColor=none;fillColor=none;" parent="1" vertex="1">
          <mxGeometry x="-390" y="845" width="70" height="40" as="geometry" />
        </mxCell>
        <mxCell id="jWYzbLdqj7CJddAkFR9f-10" value="&lt;font style=&quot;font-size: 18px;&quot;&gt;(1, N)&lt;/font&gt;" style="text;html=1;align=center;verticalAlign=middle;resizable=0;points=[];autosize=1;strokeColor=none;fillColor=none;" parent="1" vertex="1">
          <mxGeometry x="-515" y="1300" width="70" height="40" as="geometry" />
        </mxCell>
        <mxCell id="jWYzbLdqj7CJddAkFR9f-11" value="&lt;font style=&quot;font-size: 18px;&quot;&gt;(1, 1)&lt;/font&gt;" style="text;html=1;align=center;verticalAlign=middle;resizable=0;points=[];autosize=1;strokeColor=none;fillColor=none;" parent="1" vertex="1">
          <mxGeometry x="-770" y="1180" width="70" height="40" as="geometry" />
        </mxCell>
        <mxCell id="jWYzbLdqj7CJddAkFR9f-16" value="&lt;font style=&quot;font-size: 18px;&quot;&gt;(1, N)&lt;/font&gt;" style="text;html=1;align=center;verticalAlign=middle;resizable=0;points=[];autosize=1;strokeColor=none;fillColor=none;" parent="1" vertex="1">
          <mxGeometry x="-655" y="900" width="70" height="40" as="geometry" />
        </mxCell>
        <mxCell id="jWYzbLdqj7CJddAkFR9f-19" value="&lt;font style=&quot;font-size: 18px;&quot;&gt;(1, N)&lt;/font&gt;" style="text;html=1;align=center;verticalAlign=middle;resizable=0;points=[];autosize=1;strokeColor=none;fillColor=none;" parent="1" vertex="1">
          <mxGeometry x="-365" y="1442" width="70" height="40" as="geometry" />
        </mxCell>
        <mxCell id="jWYzbLdqj7CJddAkFR9f-21" value="&lt;font style=&quot;font-size: 18px;&quot;&gt;(1, N)&lt;/font&gt;" style="text;html=1;align=center;verticalAlign=middle;resizable=0;points=[];autosize=1;strokeColor=none;fillColor=none;" parent="1" vertex="1">
          <mxGeometry x="-225" y="890" width="70" height="40" as="geometry" />
        </mxCell>
        <mxCell id="jWYzbLdqj7CJddAkFR9f-35" value="PortManagerID" style="ellipse;whiteSpace=wrap;html=1;align=center;fontStyle=4;" parent="1" vertex="1">
          <mxGeometry x="-670" y="1190" width="100" height="40" as="geometry" />
        </mxCell>
        <mxCell id="jWYzbLdqj7CJddAkFR9f-36" value="&lt;font style=&quot;font-size: 18px;&quot;&gt;(1, 1)&lt;/font&gt;" style="text;html=1;align=center;verticalAlign=middle;resizable=0;points=[];autosize=1;strokeColor=none;fillColor=none;" parent="1" vertex="1">
          <mxGeometry x="-785" y="1488" width="70" height="40" as="geometry" />
        </mxCell>
        <mxCell id="jWYzbLdqj7CJddAkFR9f-37" value="&lt;font style=&quot;font-size: 18px;&quot;&gt;(1, 1)&lt;/font&gt;" style="text;html=1;align=center;verticalAlign=middle;resizable=0;points=[];autosize=1;strokeColor=none;fillColor=none;" parent="1" vertex="1">
          <mxGeometry x="-855" y="1190" width="70" height="40" as="geometry" />
        </mxCell>
        <mxCell id="jWYzbLdqj7CJddAkFR9f-46" value="" style="edgeStyle=orthogonalEdgeStyle;rounded=0;orthogonalLoop=1;jettySize=auto;html=1;" parent="1" source="jWYzbLdqj7CJddAkFR9f-38" target="F-SDp04eJJx72uGeiEW5-59" edge="1">
          <mxGeometry relative="1" as="geometry">
            <Array as="points">
              <mxPoint x="-850" y="1105" />
            </Array>
          </mxGeometry>
        </mxCell>
        <mxCell id="jWYzbLdqj7CJddAkFR9f-38" value="DockManagerID" style="ellipse;whiteSpace=wrap;html=1;align=center;fontStyle=4;" parent="1" vertex="1">
          <mxGeometry x="-1040" y="1080" width="100" height="50" as="geometry" />
        </mxCell>
        <mxCell id="jWYzbLdqj7CJddAkFR9f-40" value="&lt;font style=&quot;font-size: 18px;&quot;&gt;(1, 1)&lt;/font&gt;" style="text;html=1;align=center;verticalAlign=middle;resizable=0;points=[];autosize=1;strokeColor=none;fillColor=none;" parent="1" vertex="1">
          <mxGeometry x="-555" y="1488" width="70" height="40" as="geometry" />
        </mxCell>
        <mxCell id="jWYzbLdqj7CJddAkFR9f-41" value="&lt;font style=&quot;font-size: 18px;&quot;&gt;(1, 1)&lt;/font&gt;" style="text;html=1;align=center;verticalAlign=middle;resizable=0;points=[];autosize=1;strokeColor=none;fillColor=none;" parent="1" vertex="1">
          <mxGeometry x="-360" y="910" width="70" height="40" as="geometry" />
        </mxCell>
        <mxCell id="jWYzbLdqj7CJddAkFR9f-44" value="&lt;font style=&quot;font-size: 18px;&quot;&gt;(1, 1)&lt;/font&gt;" style="text;html=1;align=center;verticalAlign=middle;resizable=0;points=[];autosize=1;strokeColor=none;fillColor=none;" parent="1" vertex="1">
          <mxGeometry x="-800" y="1428.28" width="70" height="40" as="geometry" />
        </mxCell>
        <mxCell id="jWYzbLdqj7CJddAkFR9f-45" value="&lt;font style=&quot;font-size: 18px;&quot;&gt;(1, 1)&lt;/font&gt;" style="text;html=1;align=center;verticalAlign=middle;resizable=0;points=[];autosize=1;strokeColor=none;fillColor=none;" parent="1" vertex="1">
          <mxGeometry x="-445" y="1413" width="70" height="40" as="geometry" />
        </mxCell>
        <mxCell id="jWYzbLdqj7CJddAkFR9f-49" value="" style="edgeStyle=orthogonalEdgeStyle;rounded=0;orthogonalLoop=1;jettySize=auto;html=1;" parent="1" source="jWYzbLdqj7CJddAkFR9f-47" target="F-SDp04eJJx72uGeiEW5-70" edge="1">
          <mxGeometry relative="1" as="geometry">
            <Array as="points">
              <mxPoint x="-380" y="1640" />
              <mxPoint x="-410" y="1640" />
            </Array>
          </mxGeometry>
        </mxCell>
        <mxCell id="jWYzbLdqj7CJddAkFR9f-47" value="WarehouseManagerID" style="ellipse;whiteSpace=wrap;html=1;align=center;fontStyle=4;" parent="1" vertex="1">
          <mxGeometry x="-390" y="1660.2800000000002" width="150" height="55.28" as="geometry" />
        </mxCell>
        <mxCell id="K3LRpeD0jAD2TLBuMLeW-57" style="edgeStyle=orthogonalEdgeStyle;rounded=0;orthogonalLoop=1;jettySize=auto;html=1;" parent="1" source="jWYzbLdqj7CJddAkFR9f-50" target="Vb_I1W2tZeeBy-N_NUL7-23" edge="1">
          <mxGeometry relative="1" as="geometry">
            <Array as="points">
              <mxPoint x="120" y="1460" />
              <mxPoint x="-30" y="1460" />
            </Array>
          </mxGeometry>
        </mxCell>
        <mxCell id="jWYzbLdqj7CJddAkFR9f-50" value="GoodsInvoice" style="shape=rhombus;perimeter=rhombusPerimeter;whiteSpace=wrap;html=1;align=center;" parent="1" vertex="1">
          <mxGeometry x="60" y="1368.28" width="120" height="60" as="geometry" />
        </mxCell>
        <mxCell id="K3LRpeD0jAD2TLBuMLeW-32" value="" style="edgeStyle=orthogonalEdgeStyle;rounded=0;orthogonalLoop=1;jettySize=auto;html=1;" parent="1" source="44PwhdpTDtPmbjI4qkvA-3" target="Vb_I1W2tZeeBy-N_NUL7-23" edge="1">
          <mxGeometry relative="1" as="geometry" />
        </mxCell>
        <mxCell id="44PwhdpTDtPmbjI4qkvA-3" value="InvoiceID" style="ellipse;whiteSpace=wrap;html=1;align=center;fontStyle=4;" parent="1" vertex="1">
          <mxGeometry x="-100" y="1685.2799999999997" width="100" height="40" as="geometry" />
        </mxCell>
        <mxCell id="K3LRpeD0jAD2TLBuMLeW-69" style="edgeStyle=orthogonalEdgeStyle;rounded=0;orthogonalLoop=1;jettySize=auto;html=1;" parent="1" source="44PwhdpTDtPmbjI4qkvA-5" target="gHPbyHkSOS8YVctrfDTX-1" edge="1">
          <mxGeometry relative="1" as="geometry">
            <Array as="points">
              <mxPoint x="-125" y="970" />
              <mxPoint x="-125" y="890" />
            </Array>
          </mxGeometry>
        </mxCell>
        <mxCell id="44PwhdpTDtPmbjI4qkvA-5" value="ContainerGoods" style="shape=rhombus;perimeter=rhombusPerimeter;whiteSpace=wrap;html=1;align=center;" parent="1" vertex="1">
          <mxGeometry x="-30" y="940" width="120" height="60" as="geometry" />
        </mxCell>
        <mxCell id="K3LRpeD0jAD2TLBuMLeW-75" style="edgeStyle=orthogonalEdgeStyle;rounded=0;orthogonalLoop=1;jettySize=auto;html=1;" parent="1" source="44PwhdpTDtPmbjI4qkvA-12" target="F-SDp04eJJx72uGeiEW5-59" edge="1">
          <mxGeometry relative="1" as="geometry">
            <Array as="points">
              <mxPoint x="-710" y="1160" />
            </Array>
          </mxGeometry>
        </mxCell>
        <mxCell id="44PwhdpTDtPmbjI4qkvA-12" value="DockShip" style="shape=rhombus;perimeter=rhombusPerimeter;whiteSpace=wrap;html=1;align=center;" parent="1" vertex="1">
          <mxGeometry x="-775" y="1000" width="120" height="60" as="geometry" />
        </mxCell>
        <mxCell id="44PwhdpTDtPmbjI4qkvA-21" value="" style="edgeStyle=orthogonalEdgeStyle;rounded=0;orthogonalLoop=1;jettySize=auto;html=1;entryX=0.37;entryY=-0.012;entryDx=0;entryDy=0;entryPerimeter=0;" parent="1" source="44PwhdpTDtPmbjI4qkvA-20" target="F-SDp04eJJx72uGeiEW5-59" edge="1">
          <mxGeometry relative="1" as="geometry" />
        </mxCell>
        <mxCell id="44PwhdpTDtPmbjI4qkvA-20" value="PortID" style="ellipse;whiteSpace=wrap;html=1;align=center;fontStyle=4;" parent="1" vertex="1">
          <mxGeometry x="-1040" y="1020" width="100" height="40" as="geometry" />
        </mxCell>
        <mxCell id="K3LRpeD0jAD2TLBuMLeW-6" value="" style="edgeStyle=orthogonalEdgeStyle;rounded=0;orthogonalLoop=1;jettySize=auto;html=1;" parent="1" source="44PwhdpTDtPmbjI4qkvA-22" target="F-SDp04eJJx72uGeiEW5-70" edge="1">
          <mxGeometry relative="1" as="geometry" />
        </mxCell>
        <mxCell id="44PwhdpTDtPmbjI4qkvA-22" value="PortID" style="ellipse;whiteSpace=wrap;html=1;align=center;fontStyle=4;" parent="1" vertex="1">
          <mxGeometry x="-640" y="1700" width="100" height="40" as="geometry" />
        </mxCell>
        <mxCell id="44PwhdpTDtPmbjI4qkvA-25" value="" style="edgeStyle=orthogonalEdgeStyle;rounded=0;orthogonalLoop=1;jettySize=auto;html=1;" parent="1" source="44PwhdpTDtPmbjI4qkvA-24" target="Vb_I1W2tZeeBy-N_NUL7-13" edge="1">
          <mxGeometry relative="1" as="geometry">
            <Array as="points">
              <mxPoint x="-960" y="1540" />
              <mxPoint x="-960" y="1508" />
            </Array>
          </mxGeometry>
        </mxCell>
        <mxCell id="44PwhdpTDtPmbjI4qkvA-24" value="TaskID" style="ellipse;whiteSpace=wrap;html=1;align=center;fontStyle=4;" parent="1" vertex="1">
          <mxGeometry x="-1090" y="1530.28" width="100" height="50" as="geometry" />
        </mxCell>
        <mxCell id="qVT6wGXYpauZH5qavUCO-3" value="" style="edgeStyle=orthogonalEdgeStyle;rounded=0;orthogonalLoop=1;jettySize=auto;html=1;" parent="1" source="qVT6wGXYpauZH5qavUCO-2" target="gHPbyHkSOS8YVctrfDTX-1" edge="1">
          <mxGeometry relative="1" as="geometry">
            <Array as="points">
              <mxPoint x="-240" y="925" />
              <mxPoint x="-270" y="925" />
            </Array>
          </mxGeometry>
        </mxCell>
        <mxCell id="qVT6wGXYpauZH5qavUCO-2" value="ShipID" style="ellipse;whiteSpace=wrap;html=1;align=center;fontStyle=4;" parent="1" vertex="1">
          <mxGeometry x="-250" y="950" width="100" height="40" as="geometry" />
        </mxCell>
        <mxCell id="K3LRpeD0jAD2TLBuMLeW-38" value="" style="edgeStyle=orthogonalEdgeStyle;rounded=0;orthogonalLoop=1;jettySize=auto;html=1;" parent="1" source="qVT6wGXYpauZH5qavUCO-4" target="Vb_I1W2tZeeBy-N_NUL7-18" edge="1">
          <mxGeometry relative="1" as="geometry">
            <Array as="points">
              <mxPoint x="270" y="1600" />
              <mxPoint x="270" y="1600" />
            </Array>
          </mxGeometry>
        </mxCell>
        <mxCell id="qVT6wGXYpauZH5qavUCO-4" value="LastName" style="ellipse;whiteSpace=wrap;html=1;align=center;" parent="1" vertex="1">
          <mxGeometry x="200" y="1620" width="100" height="40" as="geometry" />
        </mxCell>
        <mxCell id="K3LRpeD0jAD2TLBuMLeW-55" style="edgeStyle=orthogonalEdgeStyle;rounded=0;orthogonalLoop=1;jettySize=auto;html=1;" parent="1" source="qVT6wGXYpauZH5qavUCO-13" edge="1">
          <mxGeometry relative="1" as="geometry">
            <mxPoint x="280" y="1540" as="targetPoint" />
          </mxGeometry>
        </mxCell>
        <mxCell id="qVT6wGXYpauZH5qavUCO-13" value="Country" style="ellipse;whiteSpace=wrap;html=1;align=center;" parent="1" vertex="1">
          <mxGeometry x="160" y="1468.28" width="100" height="40" as="geometry" />
        </mxCell>
        <mxCell id="K3LRpeD0jAD2TLBuMLeW-47" value="" style="edgeStyle=orthogonalEdgeStyle;rounded=0;orthogonalLoop=1;jettySize=auto;html=1;" parent="1" source="qVT6wGXYpauZH5qavUCO-15" target="Vb_I1W2tZeeBy-N_NUL7-18" edge="1">
          <mxGeometry relative="1" as="geometry">
            <Array as="points">
              <mxPoint x="310" y="1490" />
              <mxPoint x="310" y="1490" />
            </Array>
          </mxGeometry>
        </mxCell>
        <mxCell id="qVT6wGXYpauZH5qavUCO-15" value="City" style="ellipse;whiteSpace=wrap;html=1;align=center;" parent="1" vertex="1">
          <mxGeometry x="240" y="1418.28" width="100" height="40" as="geometry" />
        </mxCell>
        <mxCell id="qVT6wGXYpauZH5qavUCO-20" value="" style="edgeStyle=orthogonalEdgeStyle;rounded=0;orthogonalLoop=1;jettySize=auto;html=1;" parent="1" source="qVT6wGXYpauZH5qavUCO-19" target="gHPbyHkSOS8YVctrfDTX-1" edge="1">
          <mxGeometry relative="1" as="geometry">
            <Array as="points">
              <mxPoint x="-70" y="870" />
            </Array>
          </mxGeometry>
        </mxCell>
        <mxCell id="qVT6wGXYpauZH5qavUCO-19" value="WarehouseID" style="ellipse;whiteSpace=wrap;html=1;align=center;fontStyle=4;" parent="1" vertex="1">
          <mxGeometry x="-130" y="770" width="100" height="40" as="geometry" />
        </mxCell>
        <mxCell id="F-SDp04eJJx72uGeiEW5-74" value="Capacity" style="ellipse;whiteSpace=wrap;html=1;align=center;" parent="1" vertex="1">
          <mxGeometry x="-640" y="1650" width="100" height="40" as="geometry" />
        </mxCell>
        <mxCell id="K3LRpeD0jAD2TLBuMLeW-18" value="&lt;font style=&quot;font-size: 18px;&quot;&gt;(1, N)&lt;/font&gt;" style="text;html=1;align=center;verticalAlign=middle;resizable=0;points=[];autosize=1;strokeColor=none;fillColor=none;" parent="1" vertex="1">
          <mxGeometry x="-775" y="1120" width="70" height="40" as="geometry" />
        </mxCell>
        <mxCell id="K3LRpeD0jAD2TLBuMLeW-31" style="edgeStyle=orthogonalEdgeStyle;rounded=0;orthogonalLoop=1;jettySize=auto;html=1;entryX=0.429;entryY=1;entryDx=0;entryDy=0;entryPerimeter=0;" parent="1" source="jWYzbLdqj7CJddAkFR9f-50" target="Vb_I1W2tZeeBy-N_NUL7-1" edge="1">
          <mxGeometry relative="1" as="geometry" />
        </mxCell>
        <mxCell id="K3LRpeD0jAD2TLBuMLeW-50" style="edgeStyle=orthogonalEdgeStyle;rounded=0;orthogonalLoop=1;jettySize=auto;html=1;entryX=0.859;entryY=0.034;entryDx=0;entryDy=0;entryPerimeter=0;" parent="1" source="Vb_I1W2tZeeBy-N_NUL7-22" target="Vb_I1W2tZeeBy-N_NUL7-18" edge="1">
          <mxGeometry relative="1" as="geometry" />
        </mxCell>
        <mxCell id="K3LRpeD0jAD2TLBuMLeW-58" value="&lt;font style=&quot;font-size: 18px;&quot;&gt;(1, N)&lt;/font&gt;" style="text;html=1;align=center;verticalAlign=middle;resizable=0;points=[];autosize=1;strokeColor=none;fillColor=none;" parent="1" vertex="1">
          <mxGeometry x="115" y="1240" width="70" height="40" as="geometry" />
        </mxCell>
        <mxCell id="K3LRpeD0jAD2TLBuMLeW-61" value="&lt;font style=&quot;font-size: 18px;&quot;&gt;(1, N)&lt;/font&gt;" style="text;html=1;align=center;verticalAlign=middle;resizable=0;points=[];autosize=1;strokeColor=none;fillColor=none;" parent="1" vertex="1">
          <mxGeometry x="-40" y="1473" width="70" height="40" as="geometry" />
        </mxCell>
        <mxCell id="K3LRpeD0jAD2TLBuMLeW-63" style="edgeStyle=orthogonalEdgeStyle;rounded=0;orthogonalLoop=1;jettySize=auto;html=1;entryX=0.06;entryY=0.007;entryDx=0;entryDy=0;entryPerimeter=0;" parent="1" source="44PwhdpTDtPmbjI4qkvA-5" target="Vb_I1W2tZeeBy-N_NUL7-1" edge="1">
          <mxGeometry relative="1" as="geometry" />
        </mxCell>
        <mxCell id="K3LRpeD0jAD2TLBuMLeW-65" value="&lt;font style=&quot;font-size: 18px;&quot;&gt;(1, N)&lt;/font&gt;" style="text;html=1;align=center;verticalAlign=middle;resizable=0;points=[];autosize=1;strokeColor=none;fillColor=none;" parent="1" vertex="1">
          <mxGeometry x="10" y="1100" width="70" height="40" as="geometry" />
        </mxCell>
        <mxCell id="K3LRpeD0jAD2TLBuMLeW-66" value="&lt;font style=&quot;font-size: 18px;&quot;&gt;(1, N)&lt;/font&gt;" style="text;html=1;align=center;verticalAlign=middle;resizable=0;points=[];autosize=1;strokeColor=none;fillColor=none;" parent="1" vertex="1">
          <mxGeometry x="190" y="1533" width="70" height="40" as="geometry" />
        </mxCell>
        <mxCell id="K3LRpeD0jAD2TLBuMLeW-67" value="&lt;font style=&quot;font-size: 18px;&quot;&gt;(1, 1)&lt;/font&gt;" style="text;html=1;align=center;verticalAlign=middle;resizable=0;points=[];autosize=1;strokeColor=none;fillColor=none;" parent="1" vertex="1">
          <mxGeometry x="20" y="1493" width="70" height="40" as="geometry" />
        </mxCell>
        <mxCell id="K3LRpeD0jAD2TLBuMLeW-72" style="edgeStyle=orthogonalEdgeStyle;rounded=0;orthogonalLoop=1;jettySize=auto;html=1;" parent="1" source="gHPbyHkSOS8YVctrfDTX-1" target="F-SDp04eJJx72uGeiEW5-70" edge="1">
          <mxGeometry relative="1" as="geometry">
            <Array as="points">
              <mxPoint x="-300" y="1483" />
            </Array>
          </mxGeometry>
        </mxCell>
        <mxCell id="K3LRpeD0jAD2TLBuMLeW-73" style="edgeStyle=orthogonalEdgeStyle;rounded=0;orthogonalLoop=1;jettySize=auto;html=1;entryX=0.071;entryY=0.875;entryDx=0;entryDy=0;entryPerimeter=0;" parent="1" source="gHPbyHkSOS8YVctrfDTX-1" target="jWYzbLdqj7CJddAkFR9f-8" edge="1">
          <mxGeometry relative="1" as="geometry" />
        </mxCell>
        <mxCell id="K3LRpeD0jAD2TLBuMLeW-74" style="edgeStyle=orthogonalEdgeStyle;rounded=0;orthogonalLoop=1;jettySize=auto;html=1;entryX=0.869;entryY=-0.046;entryDx=0;entryDy=0;entryPerimeter=0;" parent="1" source="44PwhdpTDtPmbjI4qkvA-12" target="jWYzbLdqj7CJddAkFR9f-16" edge="1">
          <mxGeometry relative="1" as="geometry">
            <Array as="points">
              <mxPoint x="-690" y="990" />
              <mxPoint x="-594" y="990" />
            </Array>
          </mxGeometry>
        </mxCell>
        <mxCell id="K3LRpeD0jAD2TLBuMLeW-78" style="edgeStyle=orthogonalEdgeStyle;rounded=0;orthogonalLoop=1;jettySize=auto;html=1;" parent="1" source="Vb_I1W2tZeeBy-N_NUL7-13" target="F-SDp04eJJx72uGeiEW5-59" edge="1">
          <mxGeometry relative="1" as="geometry">
            <Array as="points">
              <mxPoint x="-810" y="1357" />
              <mxPoint x="-795" y="1357" />
            </Array>
          </mxGeometry>
        </mxCell>
        <mxCell id="K3LRpeD0jAD2TLBuMLeW-80" style="edgeStyle=orthogonalEdgeStyle;rounded=0;orthogonalLoop=1;jettySize=auto;html=1;entryX=0.007;entryY=0.906;entryDx=0;entryDy=0;entryPerimeter=0;" parent="1" source="Vb_I1W2tZeeBy-N_NUL7-13" target="F-SDp04eJJx72uGeiEW5-70" edge="1">
          <mxGeometry relative="1" as="geometry">
            <Array as="points">
              <mxPoint x="-680" y="1523" />
              <mxPoint x="-680" y="1523" />
            </Array>
          </mxGeometry>
        </mxCell>
        <mxCell id="K3LRpeD0jAD2TLBuMLeW-82" value="&lt;font style=&quot;font-size: 18px;&quot;&gt;(1, 1)&lt;/font&gt;" style="text;html=1;align=center;verticalAlign=middle;resizable=0;points=[];autosize=1;strokeColor=none;fillColor=none;" parent="1" vertex="1">
          <mxGeometry x="-870" y="1443" width="70" height="40" as="geometry" />
        </mxCell>
        <mxCell id="K3LRpeD0jAD2TLBuMLeW-86" value="&lt;font style=&quot;font-size: 18px;&quot;&gt;(1, 1)&lt;/font&gt;" style="text;html=1;align=center;verticalAlign=middle;resizable=0;points=[];autosize=1;strokeColor=none;fillColor=none;" parent="1" vertex="1">
          <mxGeometry x="-675" y="1290" width="70" height="40" as="geometry" />
        </mxCell>
        <mxCell id="K3LRpeD0jAD2TLBuMLeW-88" style="edgeStyle=orthogonalEdgeStyle;rounded=0;orthogonalLoop=1;jettySize=auto;html=1;" parent="1" source="Vb_I1W2tZeeBy-N_NUL7-13" target="F-SDp04eJJx72uGeiEW5-41" edge="1">
          <mxGeometry relative="1" as="geometry">
            <mxPoint x="-1118" y="1495" as="targetPoint" />
            <Array as="points">
              <mxPoint x="-930" y="1496" />
              <mxPoint x="-930" y="1496" />
            </Array>
          </mxGeometry>
        </mxCell>
        <mxCell id="sz6iUVAKp5ZYMQDWun00-4" value="&lt;font style=&quot;font-size: 18px;&quot;&gt;(1, N)&lt;/font&gt;" style="text;html=1;align=center;verticalAlign=middle;resizable=0;points=[];autosize=1;strokeColor=none;fillColor=none;" parent="1" vertex="1">
          <mxGeometry x="-680" y="1250" width="70" height="40" as="geometry" />
        </mxCell>
        <mxCell id="sz6iUVAKp5ZYMQDWun00-5" style="edgeStyle=orthogonalEdgeStyle;rounded=0;orthogonalLoop=1;jettySize=auto;html=1;entryX=0.387;entryY=-0.05;entryDx=0;entryDy=0;entryPerimeter=0;" parent="1" source="Dtm-8tswHEWn4qXUObzb-8" target="F-SDp04eJJx72uGeiEW5-70" edge="1">
          <mxGeometry relative="1" as="geometry">
            <Array as="points">
              <mxPoint x="-510" y="1330" />
              <mxPoint x="-439" y="1330" />
            </Array>
          </mxGeometry>
        </mxCell>
        <mxCell id="yZf_EfnWKfUTd7WkPwOo-3" value="" style="edgeStyle=orthogonalEdgeStyle;rounded=0;orthogonalLoop=1;jettySize=auto;html=1;" edge="1" parent="1" source="yZf_EfnWKfUTd7WkPwOo-2" target="jWYzbLdqj7CJddAkFR9f-50">
          <mxGeometry relative="1" as="geometry" />
        </mxCell>
        <mxCell id="yZf_EfnWKfUTd7WkPwOo-2" value="Quantity" style="ellipse;whiteSpace=wrap;html=1;align=center;" vertex="1" parent="1">
          <mxGeometry x="-90" y="1373" width="100" height="40" as="geometry" />
        </mxCell>
        <mxCell id="yZf_EfnWKfUTd7WkPwOo-5" value="" style="edgeStyle=orthogonalEdgeStyle;rounded=0;orthogonalLoop=1;jettySize=auto;html=1;" edge="1" parent="1" source="yZf_EfnWKfUTd7WkPwOo-4" target="44PwhdpTDtPmbjI4qkvA-5">
          <mxGeometry relative="1" as="geometry" />
        </mxCell>
        <mxCell id="yZf_EfnWKfUTd7WkPwOo-4" value="Quantity" style="ellipse;whiteSpace=wrap;html=1;align=center;" vertex="1" parent="1">
          <mxGeometry x="140" y="950" width="100" height="40" as="geometry" />
        </mxCell>
      </root>
    </mxGraphModel>
  </diagram>
  <diagram name="Copy of Page-1" id="owvRpXOiHFDoiw-XN5x1">
    <mxGraphModel grid="1" page="1" gridSize="10" guides="1" tooltips="1" connect="1" arrows="1" fold="1" pageScale="1" pageWidth="850" pageHeight="1100" math="0" shadow="0">
      <root>
        <mxCell id="0wmvOLe7uZ9u00e17dcK-0" />
        <mxCell id="0wmvOLe7uZ9u00e17dcK-1" parent="0wmvOLe7uZ9u00e17dcK-0" />
        <mxCell id="0wmvOLe7uZ9u00e17dcK-2" value="" style="edgeStyle=orthogonalEdgeStyle;rounded=0;orthogonalLoop=1;jettySize=auto;html=1;" edge="1" parent="0wmvOLe7uZ9u00e17dcK-1" source="0wmvOLe7uZ9u00e17dcK-3" target="0wmvOLe7uZ9u00e17dcK-4">
          <mxGeometry relative="1" as="geometry" />
        </mxCell>
        <mxCell id="0wmvOLe7uZ9u00e17dcK-3" value="Container" style="rounded=1;arcSize=10;whiteSpace=wrap;html=1;align=center;" vertex="1" parent="0wmvOLe7uZ9u00e17dcK-1">
          <mxGeometry x="210" y="350" width="100" height="40" as="geometry" />
        </mxCell>
        <mxCell id="0wmvOLe7uZ9u00e17dcK-4" value="ContainerID" style="ellipse;whiteSpace=wrap;html=1;align=center;fontStyle=4;" vertex="1" parent="0wmvOLe7uZ9u00e17dcK-1">
          <mxGeometry x="180" y="260" width="100" height="40" as="geometry" />
        </mxCell>
        <mxCell id="0wmvOLe7uZ9u00e17dcK-5" value="" style="edgeStyle=orthogonalEdgeStyle;rounded=0;orthogonalLoop=1;jettySize=auto;html=1;" edge="1" parent="0wmvOLe7uZ9u00e17dcK-1" source="0wmvOLe7uZ9u00e17dcK-6" target="0wmvOLe7uZ9u00e17dcK-3">
          <mxGeometry relative="1" as="geometry" />
        </mxCell>
        <mxCell id="0wmvOLe7uZ9u00e17dcK-6" value="Type" style="ellipse;whiteSpace=wrap;html=1;align=center;" vertex="1" parent="0wmvOLe7uZ9u00e17dcK-1">
          <mxGeometry x="60" y="310" width="100" height="40" as="geometry" />
        </mxCell>
        <mxCell id="0wmvOLe7uZ9u00e17dcK-7" value="" style="edgeStyle=orthogonalEdgeStyle;rounded=0;orthogonalLoop=1;jettySize=auto;html=1;entryX=1;entryY=0.25;entryDx=0;entryDy=0;" edge="1" parent="0wmvOLe7uZ9u00e17dcK-1" source="0wmvOLe7uZ9u00e17dcK-8" target="0wmvOLe7uZ9u00e17dcK-3">
          <mxGeometry relative="1" as="geometry" />
        </mxCell>
        <mxCell id="0wmvOLe7uZ9u00e17dcK-8" value="Status" style="ellipse;whiteSpace=wrap;html=1;align=center;" vertex="1" parent="0wmvOLe7uZ9u00e17dcK-1">
          <mxGeometry x="310" y="280" width="100" height="40" as="geometry" />
        </mxCell>
        <mxCell id="0wmvOLe7uZ9u00e17dcK-9" value="" style="edgeStyle=orthogonalEdgeStyle;rounded=0;orthogonalLoop=1;jettySize=auto;html=1;" edge="1" parent="0wmvOLe7uZ9u00e17dcK-1" source="0wmvOLe7uZ9u00e17dcK-10" target="0wmvOLe7uZ9u00e17dcK-3">
          <mxGeometry relative="1" as="geometry" />
        </mxCell>
        <mxCell id="0wmvOLe7uZ9u00e17dcK-10" value="Capacity" style="ellipse;whiteSpace=wrap;html=1;align=center;" vertex="1" parent="0wmvOLe7uZ9u00e17dcK-1">
          <mxGeometry x="330" y="410" width="100" height="40" as="geometry" />
        </mxCell>
        <mxCell id="0wmvOLe7uZ9u00e17dcK-11" value="" style="edgeStyle=orthogonalEdgeStyle;rounded=0;orthogonalLoop=1;jettySize=auto;html=1;entryX=0.25;entryY=1;entryDx=0;entryDy=0;" edge="1" parent="0wmvOLe7uZ9u00e17dcK-1" source="0wmvOLe7uZ9u00e17dcK-12" target="0wmvOLe7uZ9u00e17dcK-3">
          <mxGeometry relative="1" as="geometry" />
        </mxCell>
        <mxCell id="0wmvOLe7uZ9u00e17dcK-12" value="Location" style="ellipse;whiteSpace=wrap;html=1;align=center;" vertex="1" parent="0wmvOLe7uZ9u00e17dcK-1">
          <mxGeometry x="80" y="400" width="100" height="40" as="geometry" />
        </mxCell>
      </root>
    </mxGraphModel>
  </diagram>
</mxfile>
